<?xml version="1.0" encoding="utf-8"?>
<!-- Generator: Adobe Illustrator 24.1.2, SVG Export Plug-In . SVG Version: 6.00 Build 0)  -->
<svg version="1.1" xmlns="http://www.w3.org/2000/svg" xmlns:xlink="http://www.w3.org/1999/xlink" x="0px" y="0px"
	 viewBox="0 0 800 314.35" style="enable-background:new 0 0 800 314.35;" xml:space="preserve">
<g id="BASE">
</g>
<g id="CENTRO">
</g>
<g id="ENTRADAS">
</g>
<g id="CIRCULO">
	<g>
		<path d="M723.43,28.96v256.48H28.94v-83.51c21.05-5.37,36.64-24.39,36.64-47.12c0-22.72-15.59-41.75-36.64-47.12V28.96H723.43
			 M752.37,0.02h-28.94H28.94H0v28.94v78.74v22.49l21.79,5.55c8.74,2.23,14.85,10.07,14.85,19.08s-6.11,16.85-14.85,19.08L0,179.44
			v22.49v83.51v28.94h28.94h694.5h28.94v-28.94V28.96V0.02L752.37,0.02z"/>
		<path d="M669.58,80.68v150.97H117.28V80.68H669.58 M698.51,51.74h-28.94H117.28H88.35v28.94v150.97v28.94h28.94h552.29h28.94
			v-28.94V80.68V51.74L698.51,51.74z"/>
		<path d="M749.83,0v81.63H800V0H749.83z M772.95,53.79h-21.87V28.66h21.87V53.79z"/>
		<path d="M749.83,232.72v81.63H800v-81.63H749.83z M772.95,286.51h-21.87v-25.13h21.87V286.51z"/>
		<path d="M749.83,101.38v120.47H800V101.38H749.83z M772.95,193.16h-21.87v-62.01h21.87V193.16z"/>
		<circle cx="52.14" cy="65.65" r="19.31"/>
	</g>
</g>
</svg>
