<?xml version="1.0" encoding="utf-8"?>
<!-- Svg Vector Icons : http://www.onlinewebfonts.com/icon -->
<!DOCTYPE svg PUBLIC "-//W3C//DTD SVG 1.1//EN" "http://www.w3.org/Graphics/SVG/1.1/DTD/svg11.dtd">
<svg version="1.1" xmlns="http://www.w3.org/2000/svg" xmlns:xlink="http://www.w3.org/1999/xlink" x="0px" y="0px" viewBox="0 0 1000 1000" enable-background="new 0 0 1000 1000" xml:space="preserve">
<metadata> Svg Vector Icons : http://www.onlinewebfonts.com/icon </metadata>
<g><g transform="translate(0.000000,511.000000) scale(0.100000,-0.100000)" style="fill: #dfe3e8;"><path d="M549.1,4972.3c-136.6-44.6-370.7-284.3-412.5-426.4c-47.4-161.7-50.2-8718.2,0-8877.1c41.8-142.2,192.3-317.7,340-395.8l114.3-61.3h4417.6h4417.7l111.5,61.3c131,69.7,236.9,178.4,309.4,314.9c50.2,94.8,53,259.2,53,4515.2v4417.6l-61.3,114.3c-78,147.7-253.6,298.2-395.8,340C9295.2,5022.5,691.2,5016.9,549.1,4972.3z M9398.3,4492.9l69.7-66.9V103.2v-4322.9l-69.7-66.9l-66.9-69.7h-936.5h-933.7v1337.8v1337.8h-223h-223v-1337.8v-1337.8h-223h-223v1337.8v1337.8h-223h-223v-1337.8v-1337.8h-223h-223v1337.8v1337.8h-223h-223v-1337.8v-1337.8H2960H685.7l-66.9,69.7l-69.7,66.9V-1388v2829h1449.3h1449.3v223v223H1998.4H549.1v223v223h1449.3h1449.3v223v223H1998.4H549.1V3601v825l69.7,66.9l66.9,69.7h4322.9h4322.9L9398.3,4492.9z"/><path d="M1064.7,4047c-44.6-41.8-69.7-100.3-69.7-153.3c0-100.3,105.9-223,192.3-223c139.4,0,253.6,114.3,253.6,253.6c0,86.4-122.6,192.3-223,192.3C1165,4116.7,1106.5,4091.6,1064.7,4047z"/><path d="M8645.8,4047c-136.6-133.8-41.8-376.3,147.7-376.3c50.2,0,108.7,27.9,156.1,72.5c44.6,47.4,72.5,105.9,72.5,156.1c0,108.7-111.5,217.4-223,217.4C8746.1,4116.7,8687.6,4091.6,8645.8,4047z"/><path d="M5487.9,3400.4c-50.2-25.1-125.4-89.2-167.2-142.1l-75.3-97.5v-827.8v-827.8l75.3-97.5C5460,1226.4,5499.1,1218,6346.4,1218s886.3,8.3,1025.6,189.5l75.3,97.5v827.8v827.8l-75.3,97.5c-139.4,181.2-178.3,189.5-1031.2,189.5C5694.2,3447.8,5566,3439.4,5487.9,3400.4z M7015.3,2332.9V1664h-668.9h-668.9v668.9v668.9h668.9h668.9V2332.9z"/><path d="M995-1011.7v-1560.8h1560.8h1560.8v1560.8V549.1H2555.8H995V-1011.7z M3670.7-119.8v-223H2555.8H1441v223v223h1114.9h1114.9V-119.8z M3670.7-1011.7v-223H2555.8H1441v223v223h1114.9h1114.9V-1011.7z M3670.7-1903.6v-223H2555.8H1441v223v223h1114.9h1114.9V-1903.6z"/><path d="M5468.4,306.6c-259.2-61.3-406.9-172.8-504.5-384.6c-125.4-267.6-66.9-546.3,156.1-747c158.9-142.1,331.7-203.5,515.6-178.4c345.6,47.4,579.7,317.8,576.9,660.6c0,262-128.2,476.6-348.4,579.7C5738.8,298.3,5560.4,328.9,5468.4,306.6z M5708.1-200.6c86.4-89.2,97.6-139.4,47.4-234.1c-75.2-144.9-231.3-172.8-342.8-61.3c-111.5,108.7-86.4,267.6,55.8,342.8C5560.4-103.1,5621.7-114.2,5708.1-200.6z"/><path d="M6951.2,287.1c-565.8-156.1-649.4-947.6-125.4-1218c147.7-75.3,331.7-94.8,487.8-50.2c183.9,50.2,401.4,267.6,451.6,451.5C7904.4-33.4,7450.1,423.7,6951.2,287.1z M7218.7-153.3c145-75.2,172.8-231.3,61.3-342.8c-111.5-111.5-267.6-83.6-342.9,61.3c-50.1,94.8-39,144.9,47.4,234.1C7073.8-114.2,7124-103.1,7218.7-153.3z"/><path d="M1064.7-3534.1c-136.6-133.8-41.8-376.3,147.7-376.3c108.7,0,228.6,119.8,228.6,228.6s-111.5,217.4-223,217.4C1165-3464.4,1106.5-3489.5,1064.7-3534.1z"/><path d="M8645.8-3534.1c-44.6-41.8-69.7-100.3-69.7-153.3c0-100.3,105.9-223,192.3-223c139.4,0,253.6,114.3,253.6,253.7c0,86.4-122.6,192.3-223,192.3C8746.1-3464.4,8687.6-3489.5,8645.8-3534.1z"/></g></g>
</svg>