<?xml version="1.0" encoding="utf-8"?>
<!-- Svg Vector Icons : http://www.onlinewebfonts.com/icon -->
<!DOCTYPE svg PUBLIC "-//W3C//DTD SVG 1.1//EN" "http://www.w3.org/Graphics/SVG/1.1/DTD/svg11.dtd">
<svg version="1.1" xmlns="http://www.w3.org/2000/svg" xmlns:xlink="http://www.w3.org/1999/xlink" x="0px" y="0px" viewBox="0 0 1000 1000" enable-background="new 0 0 1000 1000" xml:space="preserve">
<metadata> Svg Vector Icons : http://www.onlinewebfonts.com/icon </metadata>
<g><g transform="translate(0.000000,375.000000) scale(0.100000,-0.100000)" style="fill: #dfe3e8;"><path d="M155.5,2282.6C123,2248.1,100,2206,100,2175.4s23-72.7,55.5-107.2c55.5-53.6,61.3-55.5,248.8-55.5h193.3l-3.8-405.8l-5.7-407.7l-243.1-5.7l-245-5.7V701.6V213.5h248.8h248.8V-25.8V-265h-84.2c-105.3,0-199.1-32.5-222-76.6c-11.5-19.1-19.1-65.1-19.1-101.4c0-97.6,61.3-143.6,201-151.2l114.8-5.7l5.7-80.4l5.7-82.3H350.7H100v-1225v-1225h248.8h248.8v-76.6v-76.6H502c-105.3,0-199.1-38.3-218.2-86.1c-5.7-17.2-11.5-59.3-11.5-93.8c0-95.7,63.2-141.6,201-149.3l114.8-5.7l9.6-532.1c9.6-532.1,9.6-534,55.5-570.4c61.3-49.8,141.6-45.9,206.7,9.6l53.6,45.9l5.7,442.2l5.7,442.1H1413h486.2v-325.4v-325.4h2124.6h2124.6v325.4v325.4h1875.8H9900v2775.4v2775.4H5413.4H925l-5.7,279.5c-5.7,279.5-5.7,279.5-59.3,325.4c-51.7,44-65.1,45.9-350.3,45.9H211L155.5,2282.6z M1353.7,1141.8c101.4-99.5,30.6-266.1-114.8-266.1c-122.5,0-193.3,122.5-135.9,233.5c34.5,65.1,53.6,76.6,141.6,78.5C1286.7,1189.7,1323.1,1174.4,1353.7,1141.8z M4942.6,1182c0-1.9-91.9-84.2-204.8-178C4027.7,406.8,3732.9-159.7,3704.2-982.8c-26.8-777.1,202.9-1378.1,736.9-1929.4c49.8-51.7,183.8-172.3,298.6-268l210.5-176.1l-1117.8-5.7c-1226.9-3.8-1221.2-5.7-1471.9,111c-513,239.3-893.9,800.1-1056.6,1550.4c-38.3,174.2-44,256.5-44,612.5c0,356,5.7,438.3,44,612.5c162.7,754.1,541.7,1309.2,1056.6,1550.4c245,112.9,231.6,112.9,1458.5,112.9C4437.3,1189.7,4942.6,1185.8,4942.6,1182z M7672,1124.6C8026.1,960,8435.7,609.7,8654,284.3c580-867.1,566.6-1948.5-38.3-2794.5c-224-315.8-602.9-631.7-941.7-788.6l-145.5-67h-897.7h-899.6l-193.3,95.7c-580,290.9-1031.7,817.3-1234.6,1443.2c-164.6,505.3-151.2,1096.8,34.5,1581c88,227.8,151.2,344.5,283.3,539.8c227.8,333,555.1,618.2,916.8,800.1l193.3,95.7h899.6h897.7L7672,1124.6z M9358.3,1147.6c84.2-78.5,44-237.3-70.8-273.7c-59.3-19.1-151.2,24.9-181.8,88c-40.2,74.6-36.4,101.4,21,168.4C9188,1205,9289.4,1212.6,9358.3,1147.6z M593.8,707.3l-5.7-158.9l-80.4-5.7l-82.3-5.7v162.7v164.6h86.1h88L593.8,707.3z M593.8-1981.9l-5.7-895.8l-80.4-5.7l-82.3-5.7v899.6v901.5h86.1h86.1L593.8-1981.9z M1311.6-3063.4c101.5-53.6,122.5-176.1,42.1-254.6c-124.4-124.4-331.1,17.2-254.6,174.2c24.9,53.6,95.7,103.4,145.5,103.4C1258-3040.4,1288.6-3050,1311.6-3063.4z M9323.9-3069.1c143.6-72.7,82.3-296.7-80.4-296.7s-216.3,227.8-70.8,300.5C9233.9-3034.7,9258.8-3034.7,9323.9-3069.1z M5823-4026.2v-162.7h-86.1h-86.1v86.1v86.1h-162.7h-162.7v-86.1v-86.1h-74.7c-76.6,0-76.6,0-82.3,82.3l-5.7,80.4H5000h-162.7l-5.7-80.4c-5.7-82.3-5.7-82.3-82.3-82.3h-74.6v86.1v86.1h-162.7h-162.7v-86.1v-86.1h-86.1H4177v86.1v88l-157-5.7l-158.9-5.7l-5.7-80.4c-5.7-82.3-5.7-82.3-80.4-82.3c-74.6,0-74.6,0-80.4,82.3l-5.7,80.4l-157,5.7l-158.9,5.7v-88v-86.1h-86.1h-86.1v86.1v86.1h-162.7h-162.7v-86.1v-86.1h-74.6c-76.6,0-76.6,0-82.3,82.3l-5.7,80.4H2550h-162.7l-5.7-80.4c-5.7-82.3-5.7-82.3-82.3-82.3h-74.6v162.7v162.7h1799.2H5823V-4026.2z"/><path d="M2657.2,843.2C2439,791.6,2157.6,581,1985.4,339.8C1801.6,81.4,1658-293.7,1600.6-676.5c-44-279.5-26.8-754.2,36.4-1024c139.7-591.5,428.8-1029.8,807.7-1228.8c208.6-107.2,268-114.8,1001-107.2l658.4,5.7l-122.5,153.1c-229.7,287.1-354.1,509.1-455.5,809.6c-116.8,348.4-141.6,528.3-141.6,980c0,356,5.7,438.3,42.1,612.5c105.3,482.3,273.7,840.3,555.1,1181c51.7,61.2,97.6,122.5,107.2,135.9c11.5,17.2-128.2,23-671.8,21.1C3040,860.4,2697.4,852.8,2657.2,843.2z"/><path d="M5658.4,791.6C4749.3,309.2,4314.8-711,4601.9-1691c155-534,568.5-1029.8,1071.9-1284.3l130.2-65.1h826.9c943.6,0,859.4-11.5,1152.3,179.9c436.4,283.3,769.4,740.7,905.3,1246c45.9,174.2,51.7,222,51.7,526.4c0,302.4-5.8,354.1-49.8,520.6c-157,580-560.8,1089.1-1077.6,1357.1l-145.5,74.6h-836.5l-836.4-1.9L5658.4,791.6z M6835.6,693.9c63.2-17.2,149.3-235.4,197.1-499.6c61.3-331.1,51.7-310.1,103.3-201c24.9,53.6,55.5,141.6,67,197.1c38.3,187.6,185.7,294.8,346.5,252.7c49.8-13.4,130.2-76.6,269.9-210.5c223.9-212.5,331.1-344.5,407.7-495.7l51.7-103.4l-36.4-67c-55.5-103.4-283.3-336.9-465.1-478.5l-162.7-128.2l132.1-5.7c80.4-3.8,193.3,5.7,279.4,26.8c145.5,32.5,149.3,30.6,231.6-7.7c160.8-78.5,185.7-201,101.4-491.9c-93.8-319.6-191.4-528.3-315.8-677.6c-38.3-44-44-45.9-170.4-24.9c-151.2,24.9-392.4,103.4-522.5,168.4c-51.7,26.8-91.9,38.3-91.9,28.7c0-21,132.1-189.5,191.4-241.2c137.8-124.4,120.6-357.9-32.5-436.4c-76.6-40.2-371.3-122.5-558.9-157c-162.7-28.7-357.9-34.5-440.2-11.5c-63.2,17.2-149.3,235.4-197.1,499.6c-63.2,335-51.7,308.2-93.8,227.8c-19.1-38.3-51.7-134-72.8-210.5c-59.3-210.5-143.6-281.4-327.3-266.1c-68.9,3.8-120.6,42.1-319.6,235.4c-202.9,197.1-306.3,325.4-380.9,470.9l-51.7,103.3l36.4,68.9c51.7,97.6,312,363.7,482.3,493.8l143.6,111l-145.5,5.7c-80.4,3.8-197.1-7.7-268-23c-147.4-34.5-229.7-17.2-306.2,61.2c-82.3,86.1-91.9,153.1-51.7,323.5c76.6,319.6,208.6,629.7,333.1,779c42.1,51.7,51.7,53.6,137.8,42.1c149.3-21.1,361.8-84.2,499.6-145.5c68.9-32.5,134-57.4,143.6-57.4c28.7,0-19.1,68.9-126.3,185.7c-55.5,61.2-111,130.2-122.5,153.1c-57.4,107.2-1.9,281.4,107.2,338.8c72.7,38.3,382.8,126.3,549.3,155C6531.2,709.2,6760.9,715,6835.6,693.9z"/><path d="M6502.5-789.5c-78.5-34.5-157-130.2-183.7-222c-57.4-187.6,111-402,312-402c91.9,1.9,214.4,63.2,264.1,134c61.3,86.1,72.7,237.3,28.7,335C6856.6-804.8,6642.3-724.4,6502.5-789.5z"/></g></g>
</svg>