<!--?xml version="1.0" encoding="utf-8"?-->
<!-- Generator: Adobe Illustrator 19.1.1, SVG Export Plug-In . SVG Version: 6.00 Build 0)  -->
<svg version="1.1" id="_x31_0" xmlns="http://www.w3.org/2000/svg" xmlns:xlink="http://www.w3.org/1999/xlink" x="0px" y="0px" viewBox="0 0 512 512" style="width: 256px; height: 256px; opacity: 1;" xml:space="preserve">
<style type="text/css">
	.st0{fill:#374149;}
</style>
<g>
	<path class="st0" d="M386.906,252.084c11.375,12.934,18.274,29.883,18.274,48.422c0,18.539-6.898,35.488-18.274,48.434
		l16.504,16.504c15.57-17.184,25.074-39.981,25.074-64.938c0-24.266-9.034-46.434-23.847-63.442
		c-0.383-0.449-0.722-0.93-1.114-1.371l-0.011,0.008c-0.035-0.039-0.066-0.082-0.102-0.121L386.906,252.084z" style="fill: #dfe3e8;"></path>
	<path class="st0" d="M283.305,245.338c12.934-11.379,29.882-18.274,48.43-18.274c18.55,0,35.5,6.894,48.434,18.274l15.547-15.547
		l0.847-0.84l-0.004-0.003l0.114-0.114c-17.18-15.574-39.969-25.074-64.938-25.074c-24.25,0-46.398,9.016-63.398,23.801
		c-0.465,0.398-0.965,0.75-1.422,1.16l0.007,0.012c-0.038,0.035-0.082,0.066-0.121,0.102L283.305,245.338z" style="fill: #dfe3e8;"></path>
	<path class="st0" d="M234.988,300.506c0,24.957,9.504,47.754,25.074,64.938l16.504-16.504
		c-11.379-12.946-18.274-29.894-18.274-48.434c0-18.539,6.894-35.489,18.274-48.422l-15.621-15.621l-0.766-0.778l-0.004,0.008
		l-0.114-0.113C244.492,252.764,234.988,275.549,234.988,300.506z" style="fill: #dfe3e8;"></path>
	<path class="st0" d="M380.168,355.685c-12.934,11.367-29.883,18.274-48.434,18.274c-18.547,0-35.496-6.906-48.43-18.274
		l-15.622,15.622l-0.777,0.766c0,0.004,0.004,0.004,0.004,0.004l-0.11,0.113c17.18,15.574,39.969,25.074,64.934,25.074
		c24.215,0,46.332-8.992,63.32-23.734c0.493-0.422,1.02-0.793,1.504-1.226l-0.011-0.008c0.038-0.039,0.086-0.07,0.125-0.106
		L380.168,355.685z" style="fill: #dfe3e8;"></path>
	<path class="st0" d="M396.703,300.506c0-15.61-5.574-29.918-14.778-41.141c-0.309-0.383-0.586-0.793-0.902-1.172l-0.015,0.012
		c-0.035-0.039-0.062-0.086-0.098-0.125l-16.547,16.546c5.656,7.11,9.035,16.114,9.035,25.879c0,9.766-3.379,18.77-9.035,25.89
		l16.535,16.535C390.742,331.533,396.703,316.701,396.703,300.506z" style="fill: #dfe3e8;"></path>
	<path class="st0" d="M357.625,333.143c-7.117,5.656-16.121,9.035-25.89,9.035c-9.766,0-18.77-3.379-25.886-9.035l-15.43,15.426
		l-1.003,0.992c0,0,0.007,0,0.011,0.004l-0.113,0.114c11.394,9.843,26.226,15.808,42.422,15.808c15.57,0,29.84-5.55,41.05-14.718
		c0.414-0.332,0.856-0.629,1.262-0.973l-0.016-0.015c0.043-0.035,0.09-0.066,0.129-0.102L357.625,333.143z" style="fill: #dfe3e8;"></path>
	<path class="st0" d="M305.848,267.877c7.117-5.657,16.121-9.035,25.886-9.035c9.77,0,18.774,3.378,25.89,9.035l15.328-15.325
		l1.102-1.086c-0.004-0.004-0.007-0.008-0.007-0.008l0.113-0.117c-11.398-9.84-26.226-15.805-42.426-15.805
		c-15.602,0-29.906,5.574-41.125,14.781c-0.391,0.313-0.805,0.59-1.188,0.914l0.016,0.012c-0.043,0.035-0.086,0.062-0.125,0.098
		L305.848,267.877z" style="fill: #dfe3e8;"></path>
	<path class="st0" d="M282.683,258.185c-0.003,0.004-0.003,0.004-0.007,0.008l-0.114-0.113
		c-9.832,11.398-15.793,26.23-15.793,42.426c0,16.195,5.961,31.027,15.805,42.426l16.535-16.535
		c-5.657-7.121-9.035-16.125-9.035-25.89c0-9.766,3.378-18.77,9.035-25.879l-15.41-15.41L282.683,258.185z" style="fill: #dfe3e8;"></path>
	<path class="st0" d="M305.274,280.764c0,0-0.004,0.012-0.012,0.016l-0.113-0.114c-4.145,5.527-6.602,12.402-6.602,19.84
		c0,7.438,2.457,14.312,6.602,19.851l13.781-13.781c-0.879-1.832-1.367-3.898-1.367-6.07s0.488-4.226,1.367-6.058l-12-12
		L305.274,280.764z" style="fill: #dfe3e8;"></path>
	<path class="st0" d="M325.664,287.697c1.836-0.879,3.898-1.363,6.07-1.363c2.172,0,4.238,0.484,6.07,1.363l11.906-11.906
		l1.781-1.746c-0.008-0.004-0.015-0.008-0.023-0.012l0.117-0.118c-5.538-4.14-12.414-6.598-19.851-6.598
		c-6.836,0-13.149,2.149-18.438,5.707c-0.426,0.274-0.886,0.489-1.301,0.778l0.023,0.027c-0.042,0.031-0.094,0.054-0.136,0.086
		L325.664,287.697z" style="fill: #dfe3e8;"></path>
	<path class="st0" d="M364.926,300.506c0-6.844-2.152-13.16-5.714-18.438c-0.27-0.422-0.485-0.879-0.774-1.289l-0.023,0.023
		c-0.035-0.043-0.055-0.094-0.09-0.137l-13.781,13.782c0.878,1.832,1.367,3.886,1.367,6.058s-0.489,4.238-1.367,6.07l13.781,13.781
		C362.469,314.818,364.926,307.944,364.926,300.506z" style="fill: #dfe3e8;"></path>
	<path class="st0" d="M337.805,313.322c-1.832,0.879-3.898,1.367-6.07,1.367c-2.172,0-4.234-0.488-6.07-1.367l-11.942,11.946
		l-1.73,1.699c0.004,0.004,0.012,0.008,0.02,0.012l-0.118,0.117c5.531,4.153,12.406,6.61,19.84,6.61
		c6.824,0,13.121-2.145,18.394-5.691c0.438-0.282,0.91-0.504,1.332-0.805l-0.023-0.027c0.043-0.032,0.094-0.055,0.141-0.086
		L337.805,313.322z" style="fill: #dfe3e8;"></path>
	<path class="st0" d="M244.078,225.623c1.726,0,3.359-0.457,4.777-1.25c2.965-1.664,4.989-4.832,5.02-8.465v-0.094
		c0-5.414-4.383-9.801-9.797-9.801h-0.098c-0.825,0.011-1.63,0.117-2.395,0.32c-4.202,1.102-7.308,4.926-7.308,9.481
		C234.278,221.224,238.664,225.623,244.078,225.623z" style="fill: #dfe3e8;"></path>
	<path class="st0" d="M414.617,224.373c1.418,0.793,3.051,1.25,4.778,1.25c5.414,0,9.801-4.398,9.801-9.808
		c0-5.414-4.386-9.801-9.801-9.801c-5.414,0-9.801,4.386-9.801,9.801v0.094C409.629,219.541,411.652,222.709,414.617,224.373z" style="fill: #dfe3e8;"></path>
	<path class="st0" d="M244.078,395.006c5.414,0,9.797-4.394,9.797-9.809v-0.082c-0.031-3.645-2.043-6.813-5.02-8.466
		c-1.418-0.797-3.05-1.25-4.777-1.25c-5.414,0-9.801,4.386-9.801,9.797C234.278,390.612,238.664,395.006,244.078,395.006z" style="fill: #dfe3e8;"></path>
	<path class="st0" d="M419.394,375.4c-1.726,0-3.359,0.453-4.778,1.25c-2.976,1.653-4.988,4.821-5.023,8.466v0.082
		c0,5.414,4.387,9.809,9.801,9.809h0.094c0.829-0.008,1.633-0.114,2.395-0.317c4.206-1.102,7.312-4.938,7.312-9.492
		C429.195,379.787,424.809,375.4,419.394,375.4z" style="fill: #dfe3e8;"></path>
	<path class="st0" d="M106.801,312.08l-14.32,22.32v42.672v0.129l0,0v0.16h79.441V334.4l-14.32-22.32H106.801z M152.641,339.041
		v19.039h-9.84v-19.039H152.641z M121.602,339.041v19.039h-9.84v-19.039H121.602z" style="fill: #dfe3e8;"></path>
	<path class="st0" d="M105.711,246.143c-3.234,0-5.86,2.637-5.86,5.867c0,3.23,2.626,5.859,5.86,5.859
		c3.23,0,5.867-2.629,5.867-5.859C111.578,248.78,108.942,246.143,105.711,246.143z" style="fill: #dfe3e8;"></path>
	<path class="st0" d="M179.359,274.08v-45.84c0-1.52-1.277-2.641-2.718-2.558l-44.398,2.32v46.238l44.398,2.398
		C178.082,276.72,179.359,275.521,179.359,274.08z M166.801,249.041v6h-18v-6H166.801z" style="fill: #dfe3e8;"></path>
	<path class="st0" d="M84.562,276.639l44.16-2.398v-46.238l-44.16-2.32c-1.442-0.082-2.641,1.038-2.641,2.558v45.84
		C81.922,275.521,83.121,276.72,84.562,276.639z M105.68,263.201c-6.078,0-11.118-5.039-11.118-11.199
		c0-6.16,5.039-11.121,11.118-11.121c6.16,0,11.203,4.961,11.203,11.121C116.883,258.162,111.84,263.201,105.68,263.201z" style="fill: #dfe3e8;"></path>
	<path class="st0" d="M507.043,153.361L418.32,72.72c-2.718-2.48-6.398-3.922-10.16-3.922H103.922
		c-3.762,0-7.441,1.442-10.242,3.922L5.043,153.361C1.84,156.24,0,160.322,0,164.56v236.961c0,22.961,18.722,41.68,41.68,41.68
		h428.722c22.957,0,41.598-18.719,41.598-41.68V164.56C512,160.322,510.242,156.24,507.043,153.361z M37.121,199.521
		c0-2.562,2.082-4.562,4.559-4.562h428.722c2.481,0,4.558,2,4.558,4.562v202c0,2.481-2.078,4.559-4.558,4.559H41.68
		c-2.477,0-4.559-2.078-4.559-4.559V199.521z M116.562,91.119h53.918c8.242,0,10.48,11.363,2.801,14.481l-97.68,39.762
		c-7.762,3.121-14.078-6.879-7.84-12.562l43.762-39.758C112.883,91.842,114.641,91.119,116.562,91.119z" style="fill: #dfe3e8;"></path>
</g>
</svg>
