<!--?xml version="1.0" encoding="utf-8"?-->
<!-- Generator: Adobe Illustrator 19.1.1, SVG Export Plug-In . SVG Version: 6.00 Build 0)  -->
<svg version="1.1" id="_x31_0" xmlns="http://www.w3.org/2000/svg" xmlns:xlink="http://www.w3.org/1999/xlink" x="0px" y="0px" viewBox="0 0 512 512" style="width: 256px; height: 256px; opacity: 1;" xml:space="preserve">
<style type="text/css">
	.st0{fill:#374149;}
</style>
<g>
	<path class="st0" d="M512,189.004v-31.855c0-4.446-3.602-8.062-8.066-8.062H8.047c-4.446,0-8.047,3.617-8.047,8.062v31.938
		c3.156,0.332,5.992,1.754,8.125,3.886c2.454,2.454,3.969,5.832,3.969,9.578c0,6.996-5.305,12.75-12.094,13.465v47.043
		c3.156,0.336,5.992,1.754,8.125,3.886c2.454,2.458,3.969,5.836,3.969,9.578c0,6.98-5.305,12.75-12.094,13.465v42.39
		c0,4.446,3.602,8.062,8.047,8.062h2.898v22.242v0.07l0,0v0.16h289.648v-22.473v-22.469v-4.316c0-4.766,3.859-8.621,8.622-8.621
		c2.374,0,4.527,0.953,6.09,2.515c1.546,1.562,2.515,3.73,2.515,6.106v4.316v22.469v22.242v0.07l0,0v0.16h176.711v-22.473h9.402
		c4.465,0,8.066-3.617,8.066-8.062V290.07c-7.477,0-13.547-6.07-13.547-13.546c0-3.742,1.516-7.121,3.969-9.578
		c2.454-2.453,5.848-3.965,9.578-3.965v-46.882c-7.477,0-13.547-6.059-13.547-13.547c0-3.746,1.516-7.125,3.969-9.578
		C504.875,190.52,508.27,189.004,512,189.004z M449.914,332.316v8.125v8.129h-23.11v-8.129v-8.125H449.914z M480.191,332.316v8.125
		v8.129h-20.714v-8.129v-8.125H480.191z M417.246,332.316v8.125v8.129h-23.11v-8.129v-8.125H417.246z M414.566,292.016v-96.828
		h60.238v96.691v0.137H414.59H414.566z M393.054,292.016H332.84h-0.023v-96.828h60.238v96.691V292.016z M384.578,332.316v8.125
		v8.129h-23.094v-8.129v-8.125H384.578z M351.922,332.316v8.125v8.129h-23.105v-8.129v-8.125H351.922z M255.226,332.316v8.125v8.129
		h-25.004v-8.129v-8.125H255.226z M289.375,332.316v8.125v8.129h-24.586v-8.129v-8.125H289.375z M220.66,332.316v8.125v8.129
		h-24.988v-8.129v-8.125H220.66z M216.359,292.016v-96.828h60.219v96.691v0.137h-60.195H216.359z M188.965,292.016H128.75h-0.024
		v-96.828h60.238v96.691V292.016z M186.114,332.316v8.125v8.129H161.11v-8.129v-8.125H186.114z M151.547,332.316v8.125v8.129
		h-24.985v-8.129v-8.125H151.547z M82.45,332.316v8.125v8.129H57.446v-8.129v-8.125H82.45z M117,332.316v8.125v8.129H92.012v-8.129
		v-8.125H117z M47.886,332.316v8.125v8.129H25.289v-8.129v-8.125H47.886z M41.114,292.016v-96.828h60.238v96.691v0.137H41.137
		H41.114z" style="fill: #dfe3e8; --darkreader-inline-fill:#e8e6e3;" data-darkreader-inline-fill=""></path>
	<polygon class="st0" points="48.734,203.246 48.598,203.246 48.598,203.246 48.438,203.246 48.438,283.551 48.438,283.797 
		48.438,283.797 48.438,283.957 71.23,283.957 94.027,243.602 94.027,203.246 	" style="fill: #dfe3e8; --darkreader-inline-fill:#e8e6e3;" data-darkreader-inline-fill=""></polygon>
	<polygon class="st0" points="136.351,203.246 136.211,203.246 136.211,203.246 136.05,203.246 136.05,283.551 136.05,283.797 
		136.05,283.797 136.05,283.957 158.848,283.957 181.641,243.602 181.641,203.246 	" style="fill: #dfe3e8; --darkreader-inline-fill:#e8e6e3;" data-darkreader-inline-fill=""></polygon>
	<polygon class="st0" points="223.981,203.246 223.844,203.246 223.844,203.246 223.683,203.246 223.683,283.551 223.68,283.797 
		223.683,283.797 223.683,283.957 246.477,283.957 269.258,243.602 269.258,203.246 	" style="fill: #dfe3e8; --darkreader-inline-fill:#e8e6e3;" data-darkreader-inline-fill=""></polygon>
	<polygon class="st0" points="340.442,203.246 340.301,203.246 340.301,203.246 340.141,203.246 340.141,283.957 362.938,283.957 
		385.73,243.602 385.73,203.246 	" style="fill: #dfe3e8; --darkreader-inline-fill:#e8e6e3;" data-darkreader-inline-fill=""></polygon>
	<polygon class="st0" points="422.191,203.246 422.05,203.246 422.05,203.246 421.89,203.246 421.89,283.551 421.89,283.797 
		421.89,283.797 421.89,283.957 444.687,283.957 467.481,243.602 467.481,203.246 	" style="fill: #dfe3e8; --darkreader-inline-fill:#e8e6e3;" data-darkreader-inline-fill=""></polygon>
</g>
</svg>
