<?xml version="1.0" encoding="utf-8"?>
<!-- Svg Vector Icons : http://www.onlinewebfonts.com/icon -->
<!DOCTYPE svg PUBLIC "-//W3C//DTD SVG 1.1//EN" "http://www.w3.org/Graphics/SVG/1.1/DTD/svg11.dtd">
<svg version="1.1" xmlns="http://www.w3.org/2000/svg" xmlns:xlink="http://www.w3.org/1999/xlink" x="0px" y="0px" viewBox="0 0 1000 1000" enable-background="new 0 0 1000 1000" xml:space="preserve">
<metadata> Svg Vector Icons : http://www.onlinewebfonts.com/icon </metadata>
<g><g transform="translate(0.000000,511.000000) scale(0.100000,-0.100000) " style="fill: #dfe3e8;"><path d="M991.8,1772.1L100,905.8V-334.9v-1242.6l49-47c45.1-47.1,56.8-49,323.4-49h274.4V-1997c0-319.5,0-325.4,49-372.4l47-49h4133.6h4133.7l47,51c45.1,49,47.1,62.7,52.9,372.4l5.9,321.5h294c286.2,0,296,1.9,341,49l49,47v1240.7V905.8l-891.8,866.3l-891.8,866.3H5000H1885.6L991.8,1772.1z M8659.3,1664.3l678.2-662.5l-2169.7-5.9c-1191.7-2-3143.8-2-4335.5,0l-2169.7,5.9l678.1,662.5l678.2,660.5H5000h2981.2L8659.3,1664.3z M9586.4-344.7v-1021.2l-386.1,11.8c-211.7,7.9-693.8,13.7-1072.1,13.7h-686l174.5,113.7c98,64.7,260.7,180.3,362.6,258.7C8192.9-801.4,8627.9-372.1,8675-280c37.2,72.5,27.5,137.2-33.3,194.1c-43.1,39.2-52.9,39.2-3739.7,39.2c-3357.5,0-3700.5-2-3739.7-31.4c-70.6-49-88.2-117.6-51-196c43.1-90.2,425.3-474.3,654.6-658.6c101.9-80.4,274.4-205.8,382.2-278.3l196-129.4h-568.4c-313.6,0-746.8-5.9-964.3-13.7l-397.9-11.8v1021.2V678.4H5000h4586.4V-344.7z M8030.2-509.4C7548-970,6877.7-1346.3,6199.5-1538.3c-709.5-199.9-1560.2-227.4-2299.1-74.5c-787.9,162.7-1570,562.5-2134.4,1093.7L1619-382l1291.6,2h1289.7l68.6-58.8c176.4-154.9,444.9-227.4,778.1-209.7c119.6,7.9,270.5,27.5,335.2,45.1c148.9,39.2,339.1,139.2,376.3,198l29.4,45.1h1199.5l1197.6-2L8030.2-509.4z M3308.5-1769.6c290.1-96,603.7-170.5,936.9-221.5c270.5-39.2,1078-33.3,1362.2,9.8c307.7,49,650.7,133.3,925.1,227.4l231.3,80.4h1058.4h1058.4v-215.6v-215.6H4970.6H1060.4v215.6v215.6h980h978L3308.5-1769.6z"/></g></g>
</svg>