<!--?xml version="1.0" encoding="utf-8"?-->
<!-- Generator: Adobe Illustrator 19.1.1, SVG Export Plug-In . SVG Version: 6.00 Build 0)  -->
<svg version="1.1" id="_x31_0" xmlns="http://www.w3.org/2000/svg" xmlns:xlink="http://www.w3.org/1999/xlink" x="0px" y="0px" viewBox="0 0 512 512" style="width: 256px; height: 256px; opacity: 1;" xml:space="preserve">
<style type="text/css">
	.st0{fill:#374149;}
</style>
<g>
	<path class="st0" d="M414.211,0H97.789C74.91,0,56.262,18.625,56.262,41.527v428.95C56.262,493.379,74.91,512,97.789,512h316.422
		c22.902,0,41.527-18.621,41.527-41.523V41.527C455.738,18.625,437.113,0,414.211,0z M409.113,293.383
		c-7.179,0-13.027-5.825-13.027-13.028c0-7.203,5.848-13.027,13.027-13.027c7.203,0,13.028,5.824,13.028,13.027
		C422.141,287.558,416.316,293.383,409.113,293.383z M396.086,463.859c0-7.203,5.848-13.023,13.027-13.023
		c7.203,0,13.028,5.82,13.028,13.023c0,7.203-5.825,13.027-13.028,13.027C401.934,476.886,396.086,471.062,396.086,463.859z
		 M409.113,81.558c-7.179,0-13.027-5.82-13.027-13.027c0-7.203,5.848-13.023,13.027-13.023c7.203,0,13.028,5.82,13.028,13.023
		C422.141,75.738,416.316,81.558,409.113,81.558z M152.113,94.504c2.852-3.309,5.856-6.485,9.004-9.508
		c0.207-0.199,0.426-0.379,0.633-0.574c3.043-2.886,6.203-5.64,9.5-8.242c0.294-0.23,0.606-0.446,0.906-0.676
		c3.258-2.527,6.622-4.926,10.106-7.153c0.328-0.21,0.672-0.402,1-0.613c3.508-2.199,7.11-4.266,10.82-6.149
		c0.317-0.16,0.641-0.305,0.958-0.461c3.773-1.878,7.637-3.606,11.602-5.137c0.266-0.106,0.542-0.195,0.812-0.297
		c4.039-1.531,8.164-2.89,12.375-4.039c0.222-0.062,0.446-0.113,0.668-0.172c4.278-1.148,8.633-2.098,13.062-2.828
		c0.184-0.031,0.375-0.054,0.558-0.086c4.462-0.715,8.996-1.219,13.59-1.496c0.195-0.012,0.394-0.02,0.59-0.027
		c4.691-0.262,9.438-0.305,14.238-0.082c70.546,3.286,127.617,60.786,130.378,131.355c1.543,38.875-13.14,74.286-37.808,100.11
		c-2.336,2.446-3.398,5.414-3.398,8.336c0,6.414,5.074,12.574,12.55,12.574c11.734,0,21.25,9.515,21.25,21.25v110.398
		c0,9.719-7.887,17.582-17.582,17.582H144.098c-9.719,0-17.582-7.863-17.582-17.582V320.59c0-11.734,9.516-21.25,21.25-21.25
		c11.035,0,16.515-13.16,8.926-21.137c-23.355-24.558-37.718-57.77-37.718-94.355c0-34.035,12.41-65.172,32.949-89.133
		C151.984,94.641,152.05,94.578,152.113,94.504z M115.73,68.531c0,7.207-5.82,13.027-13.023,13.027
		c-7.184,0-13.028-5.82-13.028-13.027c0-7.203,5.844-13.023,13.028-13.023C109.91,55.508,115.73,61.328,115.73,68.531z
		 M102.707,293.383c-7.184,0-13.028-5.825-13.028-13.028c0-7.203,5.844-13.027,13.028-13.027c7.203,0,13.023,5.824,13.023,13.027
		C115.73,287.558,109.91,293.383,102.707,293.383z M102.707,450.836c7.203,0,13.023,5.82,13.023,13.023
		c0,7.203-5.82,13.027-13.023,13.027c-7.207,0-13.028-5.824-13.028-13.027C89.679,456.656,95.523,450.836,102.707,450.836z" style="fill: #dfe3e8;"></path>
	<path class="st0" d="M337.816,227.117c3.242,5.438,11.215,5.325,14.23-0.25c8.336-15.45,12.414-32.918,11.711-51.019
		c-2.015-51.11-43.566-92.973-94.629-95.352c-1.586-0.046-3.172-0.09-4.758-0.09h-0.137c-6.321,0-10.149,7.019-6.91,12.438
		L337.816,227.117z" style="fill: #dfe3e8;"></path>
	<polygon class="st0" points="340.015,378.336 340.015,378.34 339.855,378.34 339.855,423.351 339.855,423.488 339.855,423.488 
		339.855,423.649 357.074,423.649 357.074,378.34 340.07,378.34 	" style="fill: #dfe3e8;"></polygon>
	<polygon class="st0" points="319.785,378.336 319.785,378.34 319.625,378.34 319.625,423.649 329.074,423.649 329.074,378.34 
		319.816,378.34 	" style="fill: #dfe3e8;"></polygon>
	<polygon class="st0" points="302.046,378.336 302.046,378.34 301.886,378.34 301.886,423.649 311.336,423.649 311.336,378.34 
		302.074,378.34 	" style="fill: #dfe3e8;"></polygon>
	<polygon class="st0" points="253.836,423.488 253.836,423.649 263.285,423.649 263.285,378.34 254.023,378.34 253.996,378.336 
		253.996,378.34 253.836,378.34 253.836,423.351 253.836,423.488 	" style="fill: #dfe3e8;"></polygon>
	<polygon class="st0" points="248.851,378.34 239.57,378.34 239.543,378.336 239.543,378.34 239.382,378.34 239.382,423.649 
		248.851,423.649 	" style="fill: #dfe3e8;"></polygon>
	<polygon class="st0" points="269.242,378.336 269.242,378.34 269.082,378.34 269.082,423.649 293.324,423.649 293.324,378.34 
		269.316,378.34 	" style="fill: #dfe3e8;"></polygon>
</g>
</svg>
